<?xml version="1.0" encoding="UTF-8" standalone="no"?>
<svg
   xmlns:ns0="http://purl.org/dc/elements/1.0/"
   xmlns:ns="http://www.w3.org/1999/02/22-rdf-syntax-ns"
   xmlns:dc="http://purl.org/dc/elements/1.1/"
   xmlns:cc="http://creativecommons.org/ns#"
   xmlns:rdf="http://www.w3.org/1999/02/22-rdf-syntax-ns#"
   xmlns:svg="http://www.w3.org/2000/svg"
   xmlns="http://www.w3.org/2000/svg"
   xmlns:sodipodi="http://sodipodi.sourceforge.net/DTD/sodipodi-0.dtd"
   xmlns:inkscape="http://www.inkscape.org/namespaces/inkscape"
   version="1.1"
   x="0px"
   y="0px"
   viewBox="0 0 32 32"
   width="32"
   height="32"
   id="svg2"
   inkscape:version="0.48.4 r9939"
   sodipodi:docname="aardvark.svg">
  <defs
     id="defs12" />
  <sodipodi:namedview
     pagecolor="#ffffff"
     bordercolor="#666666"
     borderopacity="1"
     objecttolerance="10"
     gridtolerance="10"
     guidetolerance="10"
     inkscape:pageopacity="0"
     inkscape:pageshadow="2"
     inkscape:window-width="829"
     inkscape:window-height="480"
     id="namedview10"
     showgrid="false"
     inkscape:zoom="8.0223602"
     inkscape:cx="9.3382007"
     inkscape:cy="18.836534"
     inkscape:window-x="314"
     inkscape:window-y="371"
     inkscape:window-maximized="0"
     inkscape:current-layer="svg2" />
  <title
     id="title4">Aardvark</title>
  <metadata
     id="metadata6">
    <ns:RDF>
      <ns0:title>Aardvark</ns0:title>
      <ns0:creator>Arthur Shlain</ns0:creator>
      <ns0:publisher>thenounproject.com</ns0:publisher>
      <ns0:source>thenounproject.com</ns0:source>
      <ns0:subject>mammal aardvark burrowing nocturnal</ns0:subject>
      <cc:license
         ns:resource="http://creativecommons.org/licenses/by/3.0/" />
    </ns:RDF>
    <rdf:RDF>
      <cc:Work
         rdf:about="">
        <dc:format>image/svg+xml</dc:format>
        <dc:type
           rdf:resource="http://purl.org/dc/dcmitype/StillImage" />
        <dc:title>Aardvark</dc:title>
        <dc:creator>
          <cc:Agent>
            <dc:title>Arthur Shlain</dc:title>
          </cc:Agent>
        </dc:creator>
        <dc:publisher>
          <cc:Agent>
            <dc:title>thenounproject.com</dc:title>
          </cc:Agent>
        </dc:publisher>
        <dc:source>thenounproject.com</dc:source>
        <dc:subject>
          <rdf:Bag>
            <rdf:li>aardvark animal burrowing nocturnal mammal</rdf:li>
          </rdf:Bag>
        </dc:subject>
        <cc:license
           rdf:resource="http://creativecommons.org/licenses/by/3.0/" />
      </cc:Work>
      <cc:License
         rdf:about="http://creativecommons.org/licenses/by/3.0/">
        <cc:permits
           rdf:resource="http://creativecommons.org/ns#Reproduction" />
        <cc:permits
           rdf:resource="http://creativecommons.org/ns#Distribution" />
        <cc:requires
           rdf:resource="http://creativecommons.org/ns#Notice" />
        <cc:requires
           rdf:resource="http://creativecommons.org/ns#Attribution" />
        <cc:permits
           rdf:resource="http://creativecommons.org/ns#DerivativeWorks" />
      </cc:License>
    </rdf:RDF>
  </metadata>
  <path
     d="M 31.771848,23.804295 C 31.488418,23.556294 31.311273,23.627151 30.8507,22.776862 30.390127,21.926572 29.858695,20.403136 29.681552,19.694561 29.539837,18.950558 29.646126,17.816838 29.079264,15.655686 28.795834,14.557395 28.264403,13.211103 27.768401,12.148242 27.23697,10.979093 26.422109,9.9516584 25.394675,9.2076566 L 24.225526,8.3219386 C 23.55238,7.7905066 22.772948,7.4007916 21.958087,7.1527896 l -0.779431,-0.248001 c -1.523437,-0.496002 -3.153158,-0.531431 -4.676594,-0.07085 l -0.85029,0.248002 c -0.708574,0.212573 -1.417148,0.531431 -2.054866,0.956575 l -1.204577,0.779432 c -0.496003,0.318859 -0.956575,0.673146 -1.41715,1.0274342 L 9.3808855,11.156244 c 0,0 -0.1062862,-0.744003 -0.1771437,-1.062863 C 9.1328848,9.7745188 9.0974557,9.1722316 8.9557406,8.8179426 8.8140256,8.4282276 8.7077396,8.3927986 8.5660245,8.4282276 8.4243096,8.4636576 7.9991649,8.5699426 7.5031624,9.0659446 7.0071602,9.5619466 7.0071602,9.6328042 6.9363028,9.9516614 6.8654458,10.270521 6.6883016,11.368811 6.6174441,11.900243 c -0.035428,0.566859 -0.141715,1.629722 -0.141715,1.629722 0,0 -0.3897159,0.106286 -0.6377172,-0.106287 C 5.5900107,13.211103 5.5191533,13.104817 5.2711522,12.821388 5.0585798,12.502528 4.9168648,12.112811 4.2437188,11.33338 3.5705728,10.553948 1.551135,8.8179396 1.4448489,8.7470836 1.3385626,8.6762236 1.3031338,8.6407966 1.2677051,8.6762236 c -0.035428,0.03543 -0.1062862,0.106286 -0.070858,0.318859 0.035428,0.212572 0.8148609,1.8777224 0.8148609,1.8777224 l 0.1062862,0.248001 c 0.3542873,0.708574 0.8148609,1.38172 1.346292,1.94858 l 0.6731458,0.744003 c 0.2834299,0.212573 0.4251448,0.56686 0.2834299,0.921147 -0.035428,0.106287 -0.070857,0.177144 -0.1417149,0.248002 l -0.673146,0.814861 c -0.070857,0.07085 -0.1062861,0.177143 -0.1062861,0.248 l 0,0.177145 c 0,0.141714 -0.070858,0.283429 -0.2125724,0.354287 -0.1417149,0.07086 -0.1771437,0.212572 -0.2125724,0.354287 -0.3188586,0.885718 -0.5668598,1.027433 -0.7440035,1.488007 -0.2480012,0.708575 -0.531431,1.169148 -1.0274334,1.629723 -0.1771435,0.141714 -0.31885857,0.248 -0.389716,0.212571 -0.14171495,-0.106286 -0.31885863,-0.106286 -0.46057358,0 l -0.17714328,0.177146 c -0.31885861,0.248001 -0.35428736,0.708574 -0.14171494,1.027433 l 0.31885862,0.460574 c 0,0 0.46057358,0.566859 0.88571838,0.425145 0.8857185,1.275434 1.9485805,-0.921147 1.9485805,-0.921147 0,0 0.3542872,-0.283431 0.9565757,-0.602288 0.4960023,-0.283432 0.6022886,-0.354288 1.0982908,-0.637718 0.5314311,-0.28343 0.9211471,-0.779432 1.3817207,-1.062862 0.4960023,-0.318859 1.0628621,-0.531432 1.0628621,-0.531432 0,0 0.6377172,-0.177143 0.8148609,-0.03543 0.1771437,0.141716 0.6377172,0.602288 0.8148609,1.275434 0.1771437,0.673146 0.4251448,1.523437 0.5314306,1.842295 0.2480014,0.885718 0.5668614,0.779432 0.6377184,1.204577 0.03543,0.425145 -0.106286,0.956575 -0.248001,1.169149 -0.3542881,0.531431 -0.8857193,0.708574 -1.2400065,0.885717 -0.1771438,0.106286 -0.6377173,0.389717 -0.6022886,0.531431 0.035428,0.141715 1.0274333,0.177144 1.0274333,0.177144 l 1.2400078,0 c 0,0 0.673146,-0.07085 0.779432,-0.389715 0.106285,-0.31886 0.283429,-0.637718 0.460573,-0.814862 0.141715,-0.141714 0.425144,-0.354287 0.425144,-0.708575 0,-0.318858 -0.177143,-0.814861 -0.318857,-1.027432 -0.141715,-0.248002 0,-0.921148 0.141714,-1.240007 0.141715,-0.318859 0.531432,-0.744003 0.318858,-1.275434 -0.212571,-0.496003 0.07085,-0.248002 0.07085,-0.248002 0,0 0.212573,0.248002 0.354288,0.744005 0.177143,0.53143 0.283429,1.062861 0.460573,1.38172 0.177144,0.318858 0.425144,0.531432 0.531431,1.310864 0.07086,0.779431 -0.03542,1.310862 -0.354287,1.417148 -0.318859,0.106287 -0.673146,0.141715 -0.921147,0.389716 -0.248001,0.248002 -0.460574,0.31886 -0.602288,0.425145 -0.07085,0.07085 -0.531432,0.496003 0.07085,0.425146 0.602289,-0.07086 1.204577,0 1.204577,0 0,0 0.744003,0.177143 1.027433,0 0.283429,-0.177144 0.56686,-0.141716 0.744003,-0.212574 0.141715,-0.07085 0.354289,-0.318857 0.354289,-0.496001 0,-0.106287 0.141714,0.03543 0.248,0.177144 0.03543,0.07085 0.141714,0.07085 0.177144,0 0.03543,-0.07085 0.07085,-0.141716 0.106286,-0.248001 0.28343,0.07085 1.381721,0.212571 1.381721,0.212571 0,0 1.133718,0 1.629721,-0.318858 0.496003,-0.28343 1.204577,-0.673146 1.310864,-1.169148 0.106286,-0.496003 0.141714,-0.673146 0.389716,-1.098291 0.248001,-0.389717 0.177143,-0.460574 0.460573,-0.779432 0.28343,-0.318859 0.496003,-0.496003 0.602289,-1.13372 0.07085,-0.637717 0.177144,-1.062862 0,-1.417149 -0.177144,-0.354288 -0.248001,-0.637718 -0.177144,-0.885719 0.07085,-0.248001 0.141714,-0.602288 0.28343,-0.566859 0.141716,0.03543 0.07085,0.283429 0.212573,0.673146 0.106286,0.425144 0.566859,0.779432 0.744003,1.240005 0.177143,0.425145 0.28343,0.814862 0.212572,1.665151 -0.07085,0.850289 0.03543,1.275434 -0.212572,1.877723 -0.248001,0.602288 -0.56686,0.992004 -0.602289,1.275435 -0.03543,0.283429 0.141715,0.637716 0.637718,0.566859 0.496003,-0.07085 0.425145,-0.07085 0.708574,0.03543 0.28343,0.106286 0.531431,0.106286 0.673146,0 0.07086,-0.03543 0.28343,-0.106286 0.354288,-0.106286 0.141715,0 0.425144,0.07085 0.56686,0.03543 0.07085,-0.03543 0.212572,-0.141716 0.248001,-0.28343 0.03543,-0.141715 0,-0.141715 0.07085,-0.212572 0.07085,-0.07085 0.283429,-0.31886 0.177143,-0.708575 -0.106287,-0.389716 -0.318858,-0.708574 -0.425144,-1.913152 -0.106288,-1.204577 -0.106288,-1.94858 0.07085,-2.480011 0.177144,-0.496003 0.389715,-0.425146 0.496001,-1.027433 0.106287,-0.602289 0.03543,-1.240005 0,-1.417151 0,-0.07085 0.106287,0.07085 0.248002,0.283431 0.53143,0.708575 0.992004,1.417149 1.41715,2.196582 l 0.248001,0.425145 c 0.28343,0.496002 0.602288,0.992003 0.921147,1.488006 l 0.779432,1.13372 c 0.318859,0.460573 0.708575,0.921147 1.13372,1.275434 0.248001,0.212573 0.460573,0.354288 0.602287,0.389716 0.389717,0.03543 0.56686,-0.03543 0.673146,-0.177143 0.177145,-0.07085 0.177145,-0.283429 -0.106286,-0.531431 z M 1.6928499,9.3493716 1.551135,9.1367986 1.7991362,9.3493716 c 0.3897161,0.3542866 0.7085747,0.5314298 1.0274334,0.9565754 0.070857,0.283429 0.2834298,0.779432 0.389716,1.133718 0.1062862,0.248002 0.1771436,0.460575 0.2834299,0.637718 C 1.9408511,10.48309 2.1888523,10.341375 1.6928499,9.3493716 z m 4.6057356,8.2194654 c -0.2480012,0.177144 -0.6377172,-0.03543 -0.6377172,-0.03543 0,0 -0.035428,-0.460573 0.2125724,-0.602289 0.2480011,-0.141715 0.6377172,0.03543 0.6377172,0.03543 0,0 0,0.425145 -0.2125724,0.602288 z M 8.7077396,9.7745158 c 0.070858,0.7794322 -0.1771438,1.5942922 -0.6377173,2.2320102 -0.2480012,0.318859 -0.4605736,0.602288 -0.6731459,1.098291 0.035428,-0.283429 0.035428,-0.779432 -0.035428,-1.169149 -0.035428,-0.248001 -0.1062862,-0.602288 -0.141715,-0.921147 -0.035428,-0.177143 0,-0.354287 0,-0.496003 0.070857,-0.5314306 0.3542874,-1.0274324 0.7794322,-1.3462894 0.035428,-0.03543 0.1771437,-0.141716 0.2480012,-0.141716 0.1771436,-0.03543 0.2834298,0.07085 0.4251448,0.6377166 0.035428,0 0.035428,0.03543 0.035428,0.1062866 z M 18.946645,22.52886 c -0.212572,0.318859 -0.531431,1.027434 -0.956575,1.13372 -0.389717,0.106286 -1.062863,0.425145 -1.381721,0.673146 -0.141716,0.106286 -0.248001,0.212571 -0.354288,0.318859 0.03543,-0.283431 0.106287,-0.354288 0.106287,-0.708575 0,-0.496002 -0.460574,-0.708575 -0.425145,-1.204577 0.03543,-0.496003 0.354287,-0.814861 0.425145,-1.346292 0.07085,-0.531431 0,-0.850291 0.212572,-1.346291 0.212573,-0.496003 0.283429,-0.779434 0.602288,-0.779434 0.318859,0 0.56686,0.07086 0.673147,0.212573 0.212572,0.212572 0.389716,0.708575 0.744003,0.956576 0.318859,0.248001 0.673146,0.56686 0.673146,0.921148 0.03543,0.318858 -0.106286,0.885717 -0.318859,1.169147 z"
     id="path8"
     inkscape:connector-curvature="0" />
</svg>
