<?xml version="1.0" encoding="UTF-8" standalone="no"?>
<svg height="32" class="octicon octicon-mammal" viewBox="0 0 32 32" version="1.1" width="32" aria-hidden="true">
  <path
     style="fill-rule:evenodd"
     d="M 2.28125,6 C 0.9489669,6.0092287 0,7.0110786 0,8.3125 l 0,15.375 C 0,25.041162 0.92182131,26 2.3125,26 l 27.375,0 c 1.26,0 2.28125,-1.0325 2.28125,-2.3125 l 0,-15.375 C 31.96875,6.9984019 31.035243,6 29.6875,6 z M 4,10 l 4,0 3,4 2.96875,-3.96875 0,-0.03125 0.03125,0 3.96875,0 c 1.032143,1.365176 2.108581,2.809341 3,4 l 3,-4 4,0 0,12 -4,0 0,-6 -3,3.84375 L 18,16.03125 18,22 c -1.333333,0 -2.666667,0 -4,0 l -0.03125,0 0,-5.96875 L 11,19.84375 8,16 8,22 4,22 z"
  />
</svg>
